<?xml version="1.0" encoding="UTF-8"?> <!-- Generator: Adobe Illustrator 24.1.0, SVG Export Plug-In . SVG Version: 6.00 Build 0) --> <svg xmlns="http://www.w3.org/2000/svg" xmlns:xlink="http://www.w3.org/1999/xlink" version="1.1" id="Layer_1" x="0px" y="0px" viewBox="0 0 200 133" style="enable-background:new 0 0 200 133;" xml:space="preserve"> <style type="text/css"> .st0{fill:#32A2DB;} .st1{fill-rule:evenodd;clip-rule:evenodd;fill:#034EA1;} .st2{fill-rule:evenodd;clip-rule:evenodd;fill:#E76E25;} .st3{fill-rule:evenodd;clip-rule:evenodd;fill:#FFCA05;} </style> <g> <path class="st0" d="M182.628,119.359c0,0.126-0.022,0.238-0.064,0.338c-0.045,0.098-0.103,0.179-0.176,0.244 c-0.075,0.067-0.162,0.114-0.263,0.145c-0.101,0.028-0.204,0.045-0.308,0.045h-0.918c-0.19,0-0.358-0.02-0.495-0.059 c-0.14-0.036-0.269-0.106-0.387-0.207c-0.117-0.101-0.232-0.238-0.341-0.411c-0.11-0.171-0.232-0.395-0.367-0.669l-2.641-4.958 c-0.151-0.297-0.308-0.613-0.467-0.954c-0.157-0.341-0.3-0.674-0.426-0.996h-0.016c0.022,0.392,0.039,0.783,0.05,1.175 c0.008,0.392,0.014,0.795,0.014,1.209v5.551c0,0.053-0.014,0.103-0.045,0.145c-0.028,0.045-0.081,0.081-0.154,0.112 c-0.075,0.031-0.173,0.054-0.299,0.07c-0.126,0.017-0.288,0.026-0.484,0.026c-0.191,0-0.35-0.009-0.476-0.026 c-0.126-0.016-0.224-0.039-0.297-0.07c-0.07-0.031-0.117-0.067-0.146-0.112c-0.028-0.042-0.042-0.092-0.042-0.145v-9.536 c0-0.254,0.076-0.448,0.226-0.576c0.149-0.129,0.333-0.193,0.552-0.193h1.158c0.207,0,0.38,0.017,0.523,0.054 c0.142,0.036,0.268,0.094,0.38,0.176c0.112,0.081,0.218,0.196,0.316,0.342c0.098,0.142,0.198,0.321,0.302,0.534l2.068,3.878 c0.12,0.236,0.238,0.468,0.355,0.694c0.118,0.227,0.232,0.453,0.341,0.68c0.11,0.227,0.215,0.45,0.319,0.669 c0.103,0.218,0.204,0.437,0.302,0.655h0.008c-0.017-0.383-0.028-0.78-0.036-1.197c-0.008-0.414-0.011-0.812-0.011-1.187v-4.977 c0-0.054,0.016-0.104,0.047-0.149c0.033-0.042,0.09-0.081,0.165-0.115c0.076-0.031,0.176-0.056,0.302-0.067 c0.126-0.014,0.288-0.022,0.484-0.022c0.188,0,0.341,0.008,0.467,0.022c0.126,0.011,0.224,0.036,0.291,0.067 c0.071,0.034,0.118,0.072,0.143,0.115c0.028,0.045,0.042,0.095,0.042,0.149V119.359z M171.22,119.27 c0,0.159-0.006,0.291-0.02,0.397c-0.014,0.106-0.033,0.193-0.062,0.26c-0.028,0.064-0.062,0.112-0.103,0.142 c-0.039,0.031-0.087,0.045-0.135,0.045h-5.327c-0.182,0-0.333-0.053-0.457-0.159c-0.123-0.106-0.184-0.28-0.184-0.52v-9.247 c0-0.24,0.062-0.414,0.184-0.521c0.124-0.106,0.275-0.159,0.457-0.159h5.294c0.05,0,0.092,0.014,0.132,0.042 c0.039,0.025,0.07,0.072,0.098,0.142c0.028,0.067,0.047,0.157,0.061,0.263c0.014,0.106,0.023,0.241,0.023,0.406 c0,0.151-0.008,0.283-0.023,0.389c-0.014,0.106-0.033,0.193-0.061,0.257c-0.028,0.068-0.059,0.115-0.098,0.143 c-0.039,0.031-0.081,0.045-0.132,0.045h-3.786v2.591h3.204c0.05,0,0.095,0.017,0.137,0.045c0.039,0.031,0.073,0.078,0.101,0.14 c0.028,0.064,0.047,0.149,0.061,0.254c0.014,0.107,0.02,0.236,0.02,0.389c0,0.159-0.005,0.291-0.02,0.394 c-0.014,0.104-0.033,0.188-0.061,0.249c-0.028,0.064-0.062,0.109-0.101,0.134c-0.042,0.028-0.087,0.042-0.137,0.042h-3.204v2.991 h3.819c0.048,0,0.096,0.017,0.135,0.048c0.042,0.028,0.076,0.075,0.103,0.142c0.028,0.064,0.048,0.151,0.062,0.258 C171.215,118.979,171.22,119.113,171.22,119.27z M163.125,110.392c0,0.159-0.009,0.294-0.023,0.405 c-0.014,0.112-0.033,0.204-0.062,0.271c-0.028,0.067-0.062,0.12-0.101,0.151c-0.042,0.033-0.086,0.05-0.137,0.05h-2.655v8.551 c0,0.053-0.017,0.103-0.054,0.146c-0.036,0.045-0.095,0.081-0.176,0.106c-0.081,0.028-0.193,0.05-0.332,0.067 c-0.137,0.017-0.311,0.026-0.521,0.026c-0.207,0-0.38-0.009-0.52-0.026c-0.137-0.016-0.249-0.039-0.33-0.067 c-0.084-0.025-0.143-0.062-0.176-0.106c-0.037-0.042-0.054-0.093-0.054-0.146v-8.551h-2.658c-0.054,0-0.101-0.017-0.137-0.05 c-0.039-0.031-0.072-0.084-0.101-0.151c-0.025-0.067-0.048-0.159-0.061-0.271c-0.011-0.112-0.02-0.246-0.02-0.405 c0-0.162,0.009-0.302,0.02-0.417c0.013-0.115,0.036-0.207,0.061-0.274c0.028-0.07,0.062-0.118,0.101-0.149 c0.036-0.031,0.084-0.045,0.137-0.045h7.476c0.05,0,0.095,0.014,0.137,0.045c0.039,0.031,0.073,0.078,0.101,0.149 c0.028,0.067,0.048,0.159,0.062,0.274C163.117,110.089,163.125,110.229,163.125,110.392z M153.847,116.933 c0,0.557-0.104,1.047-0.31,1.469c-0.207,0.42-0.49,0.773-0.845,1.052c-0.355,0.283-0.77,0.493-1.245,0.636 c-0.475,0.142-0.985,0.212-1.525,0.212c-0.367,0-0.708-0.028-1.022-0.09c-0.313-0.058-0.59-0.132-0.831-0.215 c-0.24-0.087-0.442-0.174-0.605-0.269c-0.159-0.092-0.277-0.173-0.347-0.246c-0.072-0.07-0.123-0.173-0.151-0.305 c-0.031-0.134-0.045-0.327-0.045-0.579c0-0.171,0.006-0.311,0.014-0.426c0.011-0.115,0.031-0.21,0.054-0.28 c0.025-0.07,0.059-0.12,0.101-0.151c0.039-0.031,0.086-0.045,0.142-0.045c0.076,0,0.185,0.045,0.325,0.134 c0.137,0.089,0.316,0.19,0.537,0.299c0.218,0.11,0.478,0.21,0.78,0.3c0.305,0.09,0.655,0.134,1.055,0.134 c0.263,0,0.498-0.031,0.705-0.092c0.207-0.065,0.383-0.154,0.528-0.269c0.143-0.115,0.254-0.254,0.331-0.425 c0.078-0.171,0.115-0.358,0.115-0.565c0-0.241-0.064-0.447-0.196-0.618c-0.132-0.173-0.302-0.327-0.512-0.458 c-0.21-0.135-0.45-0.26-0.717-0.378c-0.268-0.118-0.545-0.243-0.828-0.372c-0.285-0.131-0.563-0.283-0.828-0.448 c-0.268-0.168-0.506-0.367-0.719-0.598c-0.21-0.232-0.381-0.507-0.513-0.823c-0.131-0.319-0.196-0.697-0.196-1.141 c0-0.506,0.096-0.954,0.283-1.34c0.188-0.383,0.442-0.705,0.764-0.957c0.319-0.255,0.697-0.445,1.13-0.571 c0.434-0.126,0.896-0.188,1.382-0.188c0.249,0,0.501,0.017,0.753,0.056c0.252,0.039,0.487,0.089,0.705,0.157 c0.218,0.064,0.411,0.14,0.583,0.221c0.17,0.081,0.282,0.151,0.335,0.204c0.056,0.056,0.092,0.101,0.112,0.14 c0.02,0.039,0.034,0.089,0.048,0.15c0.014,0.065,0.025,0.143,0.031,0.238c0.002,0.095,0.005,0.215,0.005,0.358 c0,0.156-0.002,0.291-0.011,0.4c-0.009,0.109-0.023,0.198-0.042,0.271c-0.016,0.07-0.045,0.123-0.081,0.154 c-0.036,0.033-0.084,0.05-0.142,0.05c-0.062,0-0.157-0.039-0.288-0.115c-0.132-0.076-0.291-0.159-0.484-0.249 c-0.191-0.092-0.412-0.174-0.664-0.246c-0.251-0.076-0.526-0.112-0.828-0.112c-0.236,0-0.439,0.028-0.613,0.087 c-0.176,0.056-0.322,0.137-0.44,0.237c-0.117,0.101-0.204,0.221-0.263,0.364c-0.056,0.143-0.087,0.294-0.087,0.45 c0,0.235,0.064,0.44,0.193,0.613c0.129,0.171,0.302,0.324,0.518,0.459c0.215,0.134,0.459,0.26,0.733,0.375 c0.275,0.118,0.551,0.244,0.837,0.375c0.282,0.131,0.562,0.28,0.836,0.445c0.272,0.167,0.515,0.367,0.727,0.598 c0.213,0.232,0.386,0.507,0.518,0.82C153.783,116.138,153.847,116.508,153.847,116.933z M144.49,119.821 c0,0.053-0.02,0.103-0.056,0.146c-0.033,0.045-0.092,0.081-0.176,0.106c-0.081,0.028-0.19,0.05-0.327,0.067 c-0.137,0.017-0.31,0.026-0.523,0.026c-0.207,0-0.381-0.009-0.521-0.026c-0.14-0.016-0.252-0.039-0.333-0.067 c-0.081-0.025-0.14-0.062-0.176-0.106c-0.037-0.042-0.054-0.093-0.054-0.146v-10.019c0-0.054,0.017-0.104,0.054-0.146 c0.036-0.045,0.095-0.081,0.181-0.106c0.084-0.028,0.193-0.05,0.331-0.067c0.137-0.017,0.311-0.025,0.518-0.025 c0.212,0,0.385,0.008,0.523,0.025c0.137,0.017,0.246,0.039,0.327,0.067c0.084,0.025,0.143,0.061,0.176,0.106 c0.036,0.042,0.056,0.093,0.056,0.146V119.821z M137.203,112.638c0-0.35-0.078-0.643-0.238-0.884 c-0.156-0.241-0.416-0.412-0.778-0.509c-0.109-0.028-0.232-0.05-0.372-0.064c-0.14-0.017-0.333-0.025-0.579-0.025h-0.966v3.008 h1.096c0.308,0,0.574-0.037,0.804-0.112c0.229-0.072,0.422-0.176,0.573-0.311c0.154-0.134,0.269-0.294,0.344-0.479 C137.167,113.074,137.203,112.868,137.203,112.638z M139.985,119.835c0,0.061-0.011,0.112-0.033,0.154 c-0.023,0.039-0.073,0.072-0.157,0.101c-0.081,0.028-0.202,0.047-0.361,0.058c-0.157,0.011-0.372,0.017-0.647,0.017 c-0.229,0-0.414-0.006-0.548-0.017c-0.137-0.011-0.246-0.034-0.325-0.062c-0.078-0.031-0.134-0.07-0.168-0.115 c-0.034-0.048-0.062-0.103-0.084-0.168l-0.949-2.37c-0.115-0.268-0.226-0.506-0.336-0.714c-0.112-0.207-0.232-0.38-0.366-0.52 c-0.135-0.14-0.288-0.244-0.462-0.316c-0.176-0.07-0.377-0.106-0.607-0.106h-0.671v4.043c0,0.053-0.02,0.103-0.053,0.146 c-0.036,0.045-0.095,0.081-0.176,0.106c-0.084,0.028-0.193,0.05-0.331,0.067c-0.134,0.017-0.31,0.026-0.523,0.026 c-0.207,0-0.38-0.009-0.521-0.026c-0.14-0.016-0.252-0.039-0.332-0.067c-0.081-0.025-0.14-0.062-0.172-0.106 c-0.033-0.042-0.05-0.093-0.05-0.146v-9.633c0-0.24,0.061-0.414,0.184-0.521c0.123-0.106,0.274-0.159,0.456-0.159h2.745 c0.28,0,0.509,0.006,0.688,0.017c0.182,0.011,0.345,0.025,0.493,0.039c0.426,0.062,0.809,0.165,1.152,0.314 c0.341,0.148,0.63,0.338,0.868,0.576c0.238,0.237,0.419,0.52,0.545,0.844c0.126,0.325,0.188,0.7,0.188,1.119 c0,0.356-0.045,0.68-0.134,0.971c-0.09,0.294-0.224,0.554-0.397,0.783c-0.176,0.229-0.392,0.428-0.649,0.599 c-0.254,0.168-0.549,0.305-0.876,0.408c0.159,0.079,0.308,0.171,0.448,0.28c0.137,0.109,0.269,0.241,0.392,0.397 c0.124,0.156,0.241,0.333,0.35,0.532c0.11,0.202,0.216,0.425,0.319,0.677l0.892,2.09c0.084,0.207,0.137,0.361,0.165,0.456 C139.971,119.706,139.985,119.782,139.985,119.835z M129.922,119.796c0,0.058-0.016,0.112-0.045,0.159 c-0.031,0.045-0.09,0.084-0.173,0.115c-0.084,0.031-0.202,0.054-0.35,0.07c-0.146,0.017-0.333,0.026-0.557,0.026 c-0.355,0-0.61-0.014-0.766-0.042c-0.154-0.028-0.266-0.068-0.336-0.124c-0.068-0.056-0.12-0.12-0.159-0.196l-3.204-5.033v5.033 c0,0.058-0.017,0.112-0.05,0.154c-0.034,0.045-0.09,0.081-0.174,0.112c-0.081,0.031-0.19,0.054-0.327,0.07 c-0.137,0.017-0.311,0.026-0.523,0.026c-0.207,0-0.381-0.009-0.521-0.026c-0.14-0.016-0.251-0.039-0.333-0.07 c-0.081-0.031-0.14-0.067-0.176-0.112c-0.036-0.042-0.054-0.095-0.054-0.154v-9.994c0-0.059,0.017-0.112,0.054-0.154 c0.037-0.045,0.095-0.081,0.176-0.106c0.081-0.028,0.193-0.05,0.333-0.067c0.14-0.017,0.313-0.025,0.521-0.025 c0.212,0,0.386,0.008,0.523,0.025c0.137,0.017,0.246,0.039,0.327,0.067c0.084,0.025,0.14,0.061,0.174,0.106 c0.033,0.042,0.05,0.095,0.05,0.154v4.519l3.105-4.511c0.039-0.07,0.084-0.128,0.14-0.176c0.053-0.045,0.126-0.081,0.213-0.109 c0.087-0.028,0.198-0.047,0.336-0.058c0.137-0.011,0.31-0.017,0.526-0.017c0.219,0,0.397,0.008,0.541,0.025 c0.142,0.017,0.254,0.039,0.338,0.07c0.087,0.031,0.146,0.068,0.176,0.112c0.033,0.041,0.05,0.092,0.05,0.146 c0,0.095-0.025,0.19-0.072,0.288c-0.051,0.098-0.143,0.254-0.28,0.467l-2.91,3.812l3.173,4.795c0.12,0.224,0.193,0.372,0.215,0.448 C129.909,119.692,129.922,119.751,129.922,119.796z M115.121,119.821c0,0.053-0.016,0.103-0.053,0.146 c-0.036,0.045-0.095,0.081-0.176,0.106c-0.081,0.028-0.19,0.05-0.327,0.067c-0.137,0.017-0.308,0.026-0.518,0.026 c-0.212,0-0.389-0.009-0.529-0.026c-0.137-0.016-0.249-0.039-0.327-0.067c-0.079-0.025-0.137-0.062-0.171-0.106 c-0.037-0.042-0.054-0.093-0.054-0.146v-4.29h-3.968v4.29c0,0.053-0.016,0.103-0.05,0.146c-0.033,0.045-0.09,0.081-0.173,0.106 c-0.081,0.028-0.19,0.05-0.327,0.067c-0.137,0.017-0.31,0.026-0.523,0.026c-0.207,0-0.38-0.009-0.52-0.026 c-0.14-0.016-0.252-0.039-0.333-0.067c-0.081-0.025-0.14-0.062-0.176-0.106c-0.036-0.042-0.053-0.093-0.053-0.146v-10.019 c0-0.054,0.017-0.104,0.053-0.146c0.036-0.045,0.096-0.081,0.176-0.106c0.081-0.028,0.193-0.05,0.333-0.067 c0.14-0.017,0.314-0.025,0.52-0.025c0.213,0,0.386,0.008,0.523,0.025c0.137,0.017,0.246,0.039,0.327,0.067 c0.084,0.025,0.14,0.061,0.173,0.106c0.034,0.042,0.05,0.093,0.05,0.146v3.895h3.968v-3.895c0-0.054,0.017-0.104,0.054-0.146 c0.033-0.045,0.092-0.081,0.171-0.106c0.078-0.028,0.19-0.05,0.327-0.067c0.14-0.017,0.317-0.025,0.529-0.025 c0.21,0,0.38,0.008,0.518,0.025c0.137,0.017,0.246,0.039,0.327,0.067c0.081,0.025,0.14,0.061,0.176,0.106 c0.036,0.042,0.053,0.093,0.053,0.146V119.821z M99.729,111.533H99.72l-1.5,4.508h3.008L99.729,111.533z M104.6,119.312 c0.064,0.195,0.106,0.352,0.123,0.467c0.014,0.115-0.006,0.202-0.067,0.258c-0.059,0.058-0.165,0.092-0.319,0.106 c-0.154,0.014-0.364,0.023-0.632,0.023c-0.277,0-0.495-0.006-0.652-0.014c-0.154-0.008-0.275-0.025-0.355-0.047 c-0.081-0.026-0.14-0.059-0.174-0.104c-0.031-0.045-0.059-0.101-0.081-0.173l-0.714-2.129h-3.984l-0.671,2.073 c-0.023,0.076-0.05,0.14-0.087,0.193c-0.033,0.05-0.092,0.092-0.171,0.123c-0.078,0.028-0.193,0.05-0.336,0.062 c-0.146,0.011-0.336,0.017-0.571,0.017c-0.252,0-0.448-0.009-0.591-0.026c-0.143-0.016-0.241-0.055-0.293-0.12 c-0.056-0.062-0.076-0.15-0.059-0.266c0.017-0.115,0.059-0.268,0.123-0.459l3.271-9.41c0.034-0.093,0.07-0.168,0.115-0.227 c0.045-0.056,0.115-0.101,0.21-0.131c0.095-0.028,0.227-0.047,0.397-0.056c0.168-0.008,0.395-0.014,0.672-0.014 c0.322,0,0.579,0.006,0.772,0.014c0.19,0.009,0.339,0.028,0.445,0.056c0.106,0.031,0.185,0.076,0.23,0.137 c0.047,0.058,0.086,0.14,0.12,0.246L104.6,119.312z M93.881,119.214c0,0.162-0.006,0.302-0.02,0.414 c-0.014,0.112-0.034,0.205-0.062,0.277c-0.028,0.076-0.062,0.129-0.103,0.159c-0.04,0.034-0.09,0.05-0.143,0.05h-4.86 c-0.182,0-0.333-0.053-0.456-0.159c-0.124-0.106-0.185-0.28-0.185-0.52v-9.633c0-0.054,0.016-0.104,0.053-0.146 c0.037-0.045,0.095-0.081,0.176-0.106c0.081-0.028,0.193-0.05,0.333-0.067c0.14-0.017,0.313-0.025,0.521-0.025 c0.213,0,0.386,0.008,0.523,0.025c0.137,0.017,0.246,0.039,0.327,0.067c0.084,0.025,0.143,0.061,0.176,0.106 c0.037,0.042,0.056,0.093,0.056,0.146v8.533h3.335c0.053,0,0.103,0.016,0.143,0.045c0.042,0.031,0.075,0.081,0.103,0.148 c0.028,0.07,0.047,0.159,0.062,0.271C93.875,118.911,93.881,119.049,93.881,119.214z M83.22,114.804 c0-0.559-0.045-1.066-0.132-1.522c-0.086-0.456-0.238-0.848-0.447-1.172c-0.21-0.325-0.49-0.576-0.84-0.753 c-0.35-0.18-0.787-0.269-1.312-0.269c-0.529,0-0.974,0.101-1.329,0.3c-0.353,0.202-0.641,0.467-0.859,0.8 c-0.218,0.333-0.372,0.722-0.465,1.167c-0.089,0.448-0.134,0.918-0.134,1.416c0,0.579,0.045,1.1,0.132,1.561 c0.087,0.462,0.235,0.856,0.442,1.184c0.207,0.327,0.487,0.579,0.836,0.75c0.35,0.173,0.789,0.26,1.321,0.26 c0.529,0,0.971-0.101,1.326-0.297c0.355-0.196,0.644-0.464,0.862-0.803c0.218-0.339,0.372-0.733,0.461-1.183 C83.175,115.792,83.22,115.31,83.22,114.804z M85.481,114.689c0,0.879-0.109,1.665-0.327,2.359 c-0.218,0.694-0.543,1.284-0.976,1.768c-0.431,0.481-0.966,0.851-1.6,1.105c-0.638,0.254-1.374,0.38-2.211,0.38 c-0.826,0-1.545-0.106-2.16-0.322c-0.616-0.215-1.128-0.545-1.536-0.987c-0.411-0.445-0.719-1.008-0.923-1.69 c-0.205-0.683-0.308-1.491-0.308-2.426c0-0.859,0.109-1.631,0.33-2.317c0.219-0.685,0.543-1.267,0.974-1.749 c0.431-0.481,0.965-0.85,1.603-1.108c0.635-0.258,1.377-0.384,2.216-0.384c0.805,0,1.513,0.106,2.129,0.319 c0.612,0.212,1.127,0.54,1.539,0.982c0.414,0.445,0.725,1.002,0.934,1.679C85.377,112.974,85.481,113.769,85.481,114.689z M74.224,119.796c0,0.058-0.017,0.112-0.045,0.159c-0.031,0.045-0.09,0.084-0.173,0.115c-0.084,0.031-0.202,0.054-0.35,0.07 c-0.146,0.017-0.333,0.026-0.557,0.026c-0.355,0-0.61-0.014-0.767-0.042c-0.154-0.028-0.266-0.068-0.335-0.124 c-0.068-0.056-0.12-0.12-0.16-0.196l-3.204-5.033v5.033c0,0.058-0.017,0.112-0.051,0.154c-0.033,0.045-0.089,0.081-0.173,0.112 c-0.081,0.031-0.19,0.054-0.327,0.07c-0.137,0.017-0.31,0.026-0.523,0.026c-0.207,0-0.381-0.009-0.521-0.026 c-0.14-0.016-0.252-0.039-0.332-0.07c-0.081-0.031-0.14-0.067-0.176-0.112c-0.036-0.042-0.054-0.095-0.054-0.154v-9.994 c0-0.059,0.017-0.112,0.054-0.154c0.036-0.045,0.095-0.081,0.176-0.106c0.081-0.028,0.193-0.05,0.332-0.067 c0.14-0.017,0.314-0.025,0.521-0.025c0.212,0,0.385,0.008,0.523,0.025c0.137,0.017,0.246,0.039,0.327,0.067 c0.084,0.025,0.14,0.061,0.173,0.106c0.034,0.042,0.051,0.095,0.051,0.154v4.519l3.105-4.511c0.039-0.07,0.084-0.128,0.14-0.176 c0.053-0.045,0.126-0.081,0.213-0.109c0.086-0.028,0.198-0.047,0.336-0.058c0.137-0.011,0.31-0.017,0.526-0.017 c0.219,0,0.397,0.008,0.54,0.025c0.143,0.017,0.255,0.039,0.339,0.07c0.087,0.031,0.146,0.068,0.176,0.112 c0.034,0.041,0.05,0.092,0.05,0.146c0,0.095-0.025,0.19-0.072,0.288c-0.051,0.098-0.143,0.254-0.28,0.467l-2.91,3.812l3.173,4.795 c0.12,0.224,0.193,0.372,0.215,0.448C74.21,119.692,74.224,119.751,74.224,119.796z M63.816,119.27c0,0.159-0.006,0.291-0.02,0.397 c-0.014,0.106-0.034,0.193-0.062,0.26c-0.028,0.064-0.062,0.112-0.104,0.142c-0.039,0.031-0.087,0.045-0.134,0.045h-5.328 c-0.182,0-0.333-0.053-0.456-0.159c-0.123-0.106-0.185-0.28-0.185-0.52v-9.247c0-0.24,0.062-0.414,0.185-0.521 c0.123-0.106,0.274-0.159,0.456-0.159h5.294c0.05,0,0.092,0.014,0.132,0.042c0.039,0.025,0.069,0.072,0.098,0.142 c0.028,0.067,0.048,0.157,0.062,0.263c0.014,0.106,0.022,0.241,0.022,0.406c0,0.151-0.008,0.283-0.022,0.389 c-0.014,0.106-0.034,0.193-0.062,0.257c-0.028,0.068-0.058,0.115-0.098,0.143c-0.04,0.031-0.081,0.045-0.132,0.045h-3.786v2.591 h3.204c0.05,0,0.095,0.017,0.137,0.045c0.04,0.031,0.073,0.078,0.101,0.14c0.028,0.064,0.048,0.149,0.062,0.254 c0.014,0.107,0.019,0.236,0.019,0.389c0,0.159-0.006,0.291-0.019,0.394c-0.014,0.104-0.034,0.188-0.062,0.249 c-0.028,0.064-0.061,0.109-0.101,0.134c-0.042,0.028-0.087,0.042-0.137,0.042h-3.204v2.991h3.819c0.047,0,0.095,0.017,0.134,0.048 c0.042,0.028,0.076,0.075,0.104,0.142c0.028,0.064,0.047,0.151,0.062,0.258C63.81,118.979,63.816,119.113,63.816,119.27z M55.121,116.933c0,0.557-0.103,1.047-0.31,1.469c-0.207,0.42-0.489,0.773-0.844,1.052c-0.356,0.283-0.77,0.493-1.246,0.636 c-0.475,0.142-0.984,0.212-1.525,0.212c-0.367,0-0.708-0.028-1.022-0.09c-0.313-0.058-0.59-0.132-0.831-0.215 c-0.24-0.087-0.442-0.174-0.605-0.269c-0.159-0.092-0.277-0.173-0.346-0.246c-0.073-0.07-0.124-0.173-0.151-0.305 c-0.031-0.134-0.045-0.327-0.045-0.579c0-0.171,0.005-0.311,0.014-0.426c0.011-0.115,0.031-0.21,0.053-0.28 c0.025-0.07,0.059-0.12,0.101-0.151c0.039-0.031,0.087-0.045,0.143-0.045c0.075,0,0.185,0.045,0.324,0.134 c0.137,0.089,0.316,0.19,0.537,0.299c0.218,0.11,0.479,0.21,0.781,0.3c0.305,0.09,0.654,0.134,1.054,0.134 c0.263,0,0.498-0.031,0.705-0.092c0.207-0.065,0.383-0.154,0.529-0.269c0.142-0.115,0.254-0.254,0.33-0.425 c0.078-0.171,0.115-0.358,0.115-0.565c0-0.241-0.064-0.447-0.196-0.618c-0.132-0.173-0.302-0.327-0.512-0.458 c-0.21-0.135-0.45-0.26-0.716-0.378c-0.269-0.118-0.546-0.243-0.828-0.372c-0.285-0.131-0.562-0.283-0.828-0.448 c-0.269-0.168-0.507-0.367-0.719-0.598c-0.21-0.232-0.38-0.507-0.512-0.823c-0.132-0.319-0.196-0.697-0.196-1.141 c0-0.506,0.095-0.954,0.283-1.34c0.187-0.383,0.441-0.705,0.763-0.957c0.319-0.255,0.697-0.445,1.13-0.571 c0.434-0.126,0.896-0.188,1.382-0.188c0.249,0,0.501,0.017,0.753,0.056c0.252,0.039,0.487,0.089,0.705,0.157 c0.218,0.064,0.411,0.14,0.582,0.221c0.171,0.081,0.282,0.151,0.335,0.204c0.056,0.056,0.093,0.101,0.112,0.14 c0.02,0.039,0.033,0.089,0.047,0.15c0.014,0.065,0.025,0.143,0.031,0.238c0.003,0.095,0.006,0.215,0.006,0.358 c0,0.156-0.002,0.291-0.011,0.4c-0.008,0.109-0.023,0.198-0.042,0.271c-0.016,0.07-0.045,0.123-0.081,0.154 c-0.036,0.033-0.084,0.05-0.142,0.05c-0.062,0-0.157-0.039-0.288-0.115c-0.132-0.076-0.292-0.159-0.484-0.249 c-0.19-0.092-0.411-0.174-0.663-0.246c-0.252-0.076-0.526-0.112-0.828-0.112c-0.235,0-0.44,0.028-0.613,0.087 c-0.176,0.056-0.322,0.137-0.44,0.237c-0.117,0.101-0.204,0.221-0.263,0.364c-0.056,0.143-0.087,0.294-0.087,0.45 c0,0.235,0.064,0.44,0.193,0.613c0.129,0.171,0.302,0.324,0.518,0.459c0.216,0.134,0.459,0.26,0.733,0.375 c0.275,0.118,0.552,0.244,0.837,0.375c0.283,0.131,0.563,0.28,0.836,0.445c0.272,0.167,0.515,0.367,0.727,0.598 c0.213,0.232,0.386,0.507,0.518,0.82C55.057,116.138,55.121,116.508,55.121,116.933z"></path> <path class="st1" d="M12.669,95.095c0,3.73-12.479,3.73-12.479,0V52.611c0-3.841,12.479-3.841,12.479,0V95.095z"></path> <path class="st1" d="M51.889,74.024c0-8.122-2.502-14.476-9.874-14.476c-4.478,0-9.129,3.129-10.326,7.074 c-1.408,4.643-1.415,9.916,0,14.557c1.123,3.684,5.712,6.876,9.931,6.876C48.625,88.056,51.889,82.146,51.889,74.024 M63.237,74.183c0,19.168-17.469,33.071-32.572,18.435c0,2.987,0,17.935-0.001,17.935c-0.042,8.059-6.26,12.397-12.478,12.397 V52.611c0-3.841,12.479-3.841,12.479,0v2.474C46.216,41.406,63.237,52.923,63.237,74.183z"></path> <path class="st1" d="M187.914,77.408c-5.182,0-15.929-1.081-15.929,6.529c0,3.935,2.92,5.946,6.628,5.946 C186.471,89.883,187.914,83.948,187.914,77.408 M187.711,94.55c-3.386,2.741-7.444,4.158-11.815,4.158 c-8.903,0-16.085-4.893-16.085-14.363c0-14.983,17.197-15.362,28.103-15.362c0-1.722-0.007-3.539-0.287-5.205 c-1.206-7.165-15.923-5.349-21.103-2.497c-5.458,3.004-5.57-6.855-0.662-9.306c6.522-3.258,17.038-3.607,23.702-1.664 c8.06,2.218,10.626,8.203,10.626,16.024c0,9.83,0,19.661,0,29.492c0,3.841-12.479,3.84-12.479,0V94.55z"></path> <path class="st1" d="M117.302,95.017c0,3.84,12.478,3.84,12.478,0V78.014l13.234,17.033c4.097,5.274,16.674,2.404,13.376-2.039 l-14.722-19.839l14.722-19.102c3.378-4.383-9.279-7.313-13.376-2.039l-13.234,16.597V24.673c-6.239,0-12.478,4.367-12.478,12.479 C117.302,54.192,117.302,77.977,117.302,95.017"></path> <path class="st1" d="M91.336,59.549c-6.192,0-10.044,3.651-10.291,9.435H97.38c3.35,0,4.3-1.011,3.543-3.24 C99.457,61.431,95.797,59.549,91.336,59.549 M111.785,71.164c-0.001-13.526-8.259-21.977-20.868-21.977 c-14.478,0-22.163,10.984-22.163,25.11c0,15.487,9.774,24.411,23.225,24.411c5.075,0,10.548-0.664,14.903-2.842 c4.292-2.148,3.697-11.381-0.742-9.367c-4.482,2.034-8.213,2.774-13.018,2.774c-7.93,0-12.077-4.036-12.077-11.866 c8.561,0,17.122,0,25.683,0C110.496,77.408,111.785,75.445,111.785,71.164z"></path> <path class="st2" d="M63.418,43.509c0,1.527,4.961,1.527,4.961,0V24.66h7.738c1.527,0,1.527-4.961,0-4.961h-7.738v-8.525 c0-1.527-4.961-1.527-4.961,0v8.525H55.6c-1.527,0-1.527,4.961,0,4.961h7.818V43.509z"></path> <path class="st3" d="M44.927,38.697c7.005,0,15.339,4.589,17.322,13.389c0,0-6.319-11.235-22.283-9.563c0-5.567,0-11.133,0-16.7 c0-1.527,4.961-1.527,4.961,0C44.927,30.114,44.927,34.405,44.927,38.697"></path> <path class="st3" d="M87.063,38.697c-7.005,0-15.339,4.589-17.322,13.389c0,0,6.319-11.235,22.283-9.563c0-5.567,0-11.133,0-16.7 c0-1.527-4.961-1.527-4.961,0C87.063,30.114,87.063,34.405,87.063,38.697"></path> </g> </svg> 