<?xml version="1.0" standalone="no"?>
<!DOCTYPE svg PUBLIC "-//W3C//DTD SVG 20010904//EN"
 "http://www.w3.org/TR/2001/REC-SVG-20010904/DTD/svg10.dtd">
<svg version="1.0" xmlns="http://www.w3.org/2000/svg"
 width="1800pt" height="1799.999925pt" viewBox="0 0 1260.000000 302.000000"
 preserveAspectRatio="xMidYMid meet">

<g transform="translate(0.000000,302.000000) scale(0.100000,-0.100000)"
fill="#520000" stroke="none">
<path d="M1070 2435 c-82 -16 -114 -27 -170 -55 -63 -32 -126 -86 -163 -139
l-32 -46 -5 100 -5 100 -87 0 c-49 0 -88 -3 -88 -7 0 -5 0 -346 0 -758 l0
-751 88 3 87 3 6 490 c6 515 5 507 55 649 10 31 38 71 77 113 93 99 174 134
310 134 161 1 245 -50 286 -173 20 -60 21 -81 21 -624 0 -309 3 -569 6 -578 5
-13 23 -16 94 -16 l89 0 4 493 c4 457 5 497 24 563 30 105 60 158 125 220 97
93 207 128 351 113 125 -12 199 -71 232 -184 13 -45 15 -138 15 -617 0 -309 4
-569 9 -576 5 -9 31 -12 92 -10 l84 3 0 570 c0 607 -2 641 -50 750 -39 89 -96
150 -177 189 -239 113 -567 33 -695 -170 -16 -24 -32 -44 -38 -44 -5 0 -23 25
-39 55 -33 64 -101 129 -170 164 -43 21 -200 52 -251 50 -11 -1 -49 -7 -85
-14z"/>
<path d="M3170 2435 c-160 -27 -277 -90 -379 -201 -113 -124 -170 -266 -193
-490 -33 -318 66 -603 264 -759 212 -167 560 -191 793 -56 149 87 273 260 315
441 7 30 16 68 21 84 15 49 11 323 -7 405 -37 182 -89 286 -195 393 -105 106
-207 157 -369 183 -100 17 -149 17 -250 0z m283 -180 c165 -48 275 -176 327
-380 28 -113 28 -339 0 -451 -67 -266 -238 -414 -479 -414 -150 0 -251 41
-347 142 -165 171 -212 500 -115 788 50 146 146 250 281 304 89 36 228 40 333
11z"/>
<path d="M4595 2436 c-107 -22 -183 -63 -306 -168 -31 -26 -59 -48 -63 -48 -3
0 -6 41 -6 90 l0 91 -92 -3 -93 -3 0 -755 0 -755 90 0 90 0 6 500 c3 297 10
515 16 536 35 122 104 221 195 280 86 55 142 71 252 70 199 0 287 -56 354
-225 15 -36 17 -113 22 -601 l5 -560 90 0 90 0 3 475 c3 575 -5 716 -48 807
-17 37 -54 89 -87 124 -83 87 -154 121 -308 145 -104 16 -129 16 -210 0z"/>
<path d="M5885 2435 c-149 -28 -239 -71 -332 -159 -116 -109 -177 -240 -208
-447 -28 -186 -14 -365 42 -539 47 -147 178 -309 303 -374 156 -82 372 -100
535 -44 96 32 184 85 247 148 37 37 69 62 71 56 2 -6 0 -63 -4 -126 -12 -180
-58 -301 -149 -390 -91 -88 -209 -129 -376 -130 -225 0 -369 74 -424 219 l-18
46 -93 3 c-51 1 -96 -1 -101 -6 -13 -13 14 -100 48 -158 68 -116 205 -208 369
-250 96 -24 360 -24 460 0 178 43 320 153 393 306 78 163 77 154 77 1030 l0
775 -90 0 -90 0 -1 -108 c-1 -59 -4 -110 -7 -113 -2 -3 -20 16 -38 41 -74 102
-235 193 -392 221 -96 16 -128 16 -222 -1z m325 -192 c153 -57 259 -189 310
-387 28 -112 28 -321 0 -425 -52 -186 -148 -312 -290 -380 -66 -31 -86 -36
-171 -39 -158 -7 -268 36 -365 141 -113 122 -155 247 -161 482 -4 141 -2 169
17 240 25 94 77 195 128 248 136 141 347 189 532 120z"/>
<path d="M7365 2435 c-165 -30 -252 -73 -354 -174 -91 -91 -134 -161 -177
-290 -37 -110 -60 -302 -50 -410 23 -242 102 -425 236 -549 200 -184 550 -226
802 -95 134 70 264 222 313 367 11 31 22 56 25 56 3 0 16 -29 29 -65 53 -148
180 -293 316 -359 225 -109 519 -98 708 28 51 34 134 113 175 166 22 29 86
153 98 190 6 21 10 15 21 -40 27 -134 111 -257 227 -332 125 -80 324 -109 521
-74 182 32 291 91 362 195 50 73 60 97 73 179 8 50 8 84 -1 132 -16 86 -40
133 -100 190 -88 85 -200 130 -474 196 -174 41 -299 96 -344 151 -62 75 -62
169 -1 259 57 82 140 115 290 116 219 0 344 -78 390 -244 l17 -63 92 -3 93 -3
-7 53 c-15 108 -65 214 -132 282 -76 76 -177 118 -338 143 -84 13 -115 13
-195 3 -180 -23 -281 -72 -367 -178 -62 -76 -87 -166 -81 -286 7 -115 30 -167
108 -239 84 -79 184 -120 375 -157 227 -44 325 -77 416 -141 39 -27 72 -112
67 -169 -10 -99 -72 -180 -177 -229 -52 -24 -65 -26 -201 -25 -169 0 -225 16
-303 85 -58 50 -84 93 -112 182 l-23 72 -87 3 -87 3 7 32 c3 18 9 114 12 214
6 205 -6 289 -58 423 -69 178 -211 316 -386 374 -117 39 -227 51 -334 36 -179
-24 -293 -77 -402 -187 -77 -78 -109 -126 -153 -236 -18 -43 -34 -75 -37 -70
-2 4 -10 26 -17 48 -39 125 -159 281 -269 349 -64 41 -165 76 -261 92 -100 16
-150 16 -245 -1z m276 -180 c168 -48 287 -188 333 -392 21 -96 22 -345 1 -428
-25 -96 -55 -166 -102 -232 -93 -133 -212 -193 -384 -193 -144 0 -248 42 -341
137 -108 111 -168 288 -168 493 0 345 170 594 430 630 67 10 169 3 231 -15z
m1369 -8 c155 -57 254 -178 306 -372 27 -99 27 -350 0 -450 -72 -270 -239
-415 -480 -415 -235 0 -388 115 -471 355 -30 86 -40 193 -33 336 7 139 22 205
74 315 47 101 162 202 267 236 94 31 246 29 337 -5z"/>
<path d="M11255 2435 c-137 -24 -230 -68 -327 -154 -240 -216 -323 -621 -204
-996 89 -281 322 -443 637 -445 315 -1 516 128 630 403 20 50 35 95 33 99 -3
4 -49 8 -102 8 l-97 0 -19 -52 c-46 -132 -157 -232 -302 -274 -76 -22 -236
-15 -310 14 -109 41 -206 131 -255 235 -37 80 -69 206 -69 274 l0 53 585 0
585 0 0 82 c0 136 -40 310 -98 428 -65 131 -198 251 -327 295 -60 20 -206 45
-255 44 -19 -1 -66 -7 -105 -14z m245 -177 c119 -29 221 -111 275 -221 43 -88
65 -165 65 -234 l0 -53 -480 0 c-404 0 -481 2 -486 14 -9 24 26 147 65 226 38
79 122 178 181 215 110 68 242 87 380 53z"/>
</g>
</svg>
